<svg width="96" height="40" viewBox="0 0 96 40" fill="none" xmlns="http://www.w3.org/2000/svg">
  <rect width="96" height="40" rx="12" fill="#120228"/>
  <path d="M20 12C15.5817 12 12 15.5817 12 20C12 24.4183 15.5817 28 20 28H32V24.4H20C17.5709 24.4 15.6 22.4291 15.6 20C15.6 17.5709 17.5709 15.6 20 15.6H32V12H20Z" fill="#7C3AED"/>
  <path d="M36 12V28H39.6L47.2 17.8V28H50.8V12H47.2L39.6 22.2V12H36Z" fill="#A888FF"/>
  <path d="M57.5 12C52.8056 12 49 15.8056 49 20.5C49 25.1944 52.8056 29 57.5 29C62.1944 29 66 25.1944 66 20.5C66 15.8056 62.1944 12 57.5 12ZM57.5 15.7C60.1824 15.7 62.3 17.8176 62.3 20.5C62.3 23.1824 60.1824 25.3 57.5 25.3C54.8176 25.3 52.7 23.1824 52.7 20.5C52.7 17.8176 54.8176 15.7 57.5 15.7Z" fill="#D7C8FF"/>
  <path d="M74 12C69.5817 12 66 15.5817 66 20C66 24.4183 69.5817 28 74 28H84V24.4H74C71.5709 24.4 69.6 22.4291 69.6 20C69.6 17.5709 71.5709 15.6 74 15.6H84V12H74Z" fill="#7C3AED"/>
</svg>
