<svg xmlns="http://www.w3.org/2000/svg" viewBox="0 0 24 24" role="img" aria-labelledby="title">
  <title id="title">n8n</title>
  <path
    fill="#A988FF"
    d="M21.474 5.684c-1.177 0-2.166.805-2.447 1.895h-2.895c-1.235 0-2.289.893-2.492 2.111l-.104.623a1.263 1.263 0 0 1-1.246 1.056h-.001l-1.998-.001c-.28-1.09-1.27-1.895-2.447-1.895s-2.166.805-2.447 1.895H4.973c-.28-1.09-1.27-1.895-2.447-1.895C1.13 9.474 0 10.605 0 12s1.13 2.526 2.526 2.526c1.177 0 2.166-.805 2.447-1.895h1.422c.28 1.09 1.27 1.895 2.447 1.895 1.177 0 2.166-.805 2.447-1.895h1.001a1.263 1.263 0 0 1 1.246 1.056l.104.623c.203 1.218 1.257 2.111 2.492 2.111h.369c.28 1.09 1.27 1.895 2.447 1.895 1.395 0 2.526-1.131 2.526-2.526s-1.131-2.526-2.526-2.526c-1.177 0-2.166.805-2.447 1.895h-.369a1.263 1.263 0 0 1-1.246-1.056l-.104-.623A2.52 2.52 0 0 0 13.961 12a2.52 2.52 0 0 0 .821-1.479l.104-.623a1.263 1.263 0 0 1 1.245-1.056h2.896c.28 1.09 1.27 1.895 2.446 1.895 1.396 0 2.527-1.13 2.527-2.526 0-1.395-1.131-2.526-2.527-2.526Zm0 1.263a1.263 1.263 0 0 1 1.263 1.263 1.263 1.263 0 0 1-1.263 1.263 1.263 1.263 0 0 1-1.263-1.263 1.263 1.263 0 0 1 1.263-1.263ZM2.526 10.737A1.263 1.263 0 0 1 3.79 12a1.263 1.263 0 0 1-1.263 1.263A1.263 1.263 0 0 1 1.263 12c0-.697.566-1.263 1.263-1.263Zm6.316 0A1.263 1.263 0 0 1 10.105 12a1.263 1.263 0 0 1-1.263 1.263A1.263 1.263 0 0 1 7.579 12c0-.697.566-1.263 1.263-1.263Zm10.105 3.79c.697 0 1.263.566 1.263 1.263a1.263 1.263 0 0 1-1.263 1.263 1.263 1.263 0 0 1-1.263-1.263c0-.697.566-1.263 1.263-1.263Z"
  />
</svg>
