<svg xmlns="http://www.w3.org/2000/svg" viewBox="0 0 24 24" role="img" aria-labelledby="title">
  <title id="title">OpenAI</title>
  <path
    fill="#BBA1FF"
    d="M22.282 9.821a5.985 5.985 0 0 0-.516-4.911 6.046 6.046 0 0 0-6.51-2.9A6.065 6.065 0 0 0 4.98 4.182a5.985 5.985 0 0 0-3.998 2.9 6.046 6.046 0 0 0 .742 7.096 5.98 5.98 0 0 0 .511 4.911 6.051 6.051 0 0 0 6.515 2.9A5.985 5.985 0 0 0 13.26 24a6.056 6.056 0 0 0 5.772-4.206 5.99 5.99 0 0 0 3.998-2.9 6.056 6.056 0 0 0-.748-7.073ZM13.26 22.43a4.476 4.476 0 0 1-2.877-1.04l.142-.08 4.778-2.759a.795.795 0 0 0 .393-.682v-6.737l2.02 1.169a.071.071 0 0 1 .038.052v5.583a4.504 4.504 0 0 1-4.494 4.494Zm-9.66-4.126a4.471 4.471 0 0 1-.535-3.014l.142.085 4.783 2.759a.771.771 0 0 0 .781 0l5.843-3.369v2.332a.08.08 0 0 1-.033.062l-4.808 2.774a4.499 4.499 0 0 1-6.141-1.646ZM2.34 7.896a4.485 4.485 0 0 1 2.366-1.973V11.6a.766.766 0 0 0 .388.676l5.814 3.355-2.02 1.169a.076.076 0 0 1-.07 0L3.987 13.014A4.504 4.504 0 0 1 2.34 7.872Zm16.597 3.856-5.833-3.387L15.12 7.2a.076.076 0 0 1 .071 0l4.83 2.791a4.494 4.494 0 0 1-.677 8.104v-5.677a.79.79 0 0 0-.407-.667Zm2.01-3.023-.142-.085-4.773-2.782a.776.776 0 0 0-.786 0l-5.722 3.393V6.897a.066.066 0 0 1 .029-.062l4.83-2.786a4.499 4.499 0 0 1 6.68 4.66ZM8.307 12.863l-2.02-1.163a.08.08 0 0 1-.038-.057V6.074a4.499 4.499 0 0 1 7.375-3.454l-.142.08-4.778 2.758a.795.795 0 0 0-.393.682zm1.097-2.365 2.602-1.5 2.607 1.5v2.999l-2.598 1.5-2.607-1.5Z"
  />
</svg>
