<svg width="96" height="40" viewBox="0 0 96 40" fill="none" xmlns="http://www.w3.org/2000/svg">
  <rect width="96" height="40" rx="12" fill="#120228"/>
  <path d="M29.5 11C23.701 11 19 15.701 19 21.5C19 23.0828 19.3751 24.5725 20.0437 25.8899L18.2 30.6L23.0072 28.9929C24.2659 29.6515 25.7247 30 27.2 30C33.0 30 37.7 25.299 37.7 19.5C37.7 15.701 33.999 11 29.5 11Z" fill="#7C3AED"/>
  <path d="M27.2002 13.8C32.0402 13.8 35.8 17.5598 35.8 22.3998C35.8 26.2798 32.7202 29.6 27.8402 29.6C26.6202 29.6 25.3202 29.32 24.2802 28.84L21.6002 29.72L22.5202 27.16C21.9202 26.24 21.6002 25 21.6002 23.84C21.6002 18.7602 24.9602 13.8 27.2002 13.8Z" fill="#13062A"/>
  <path d="M30.6456 25.14C30.3467 25.0511 28.2633 24.0588 27.9522 23.9408C27.6411 23.8228 27.4711 23.7829 27.3022 24.0588C27.1333 24.3346 26.5344 25.1401 26.3908 25.3089C26.2489 25.4767 26.1053 25.4979 25.8064 25.3899C25.5075 25.282 24.4186 24.909 23.232 23.8934C22.331 23.1184 21.7421 22.0847 21.5985 21.8089C21.4548 21.533 21.5943 21.3855 21.7022 21.2776C21.799 21.1808 21.9308 20.9962 22.0398 20.8599C22.1488 20.7235 22.1701 20.6236 22.2289 20.5118C22.2878 20.4 22.2587 20.2852 22.2 20.1773C22.1412 20.0693 21.3674 18.2031 21.0475 17.4128C20.7285 16.6234 21.1219 16.4679 21.4298 16.362C21.6508 16.2851 21.873 16.2203 22.0953 16.1676C22.7991 16.0016 23.062 16.2942 23.262 16.7731C23.5307 17.4118 24.0418 18.6013 24.0953 18.7162C24.1488 18.8301 24.1768 18.9514 24.1199 19.0593C24.063 19.1673 23.9875 19.2952 23.9032 19.3941C23.819 19.493 23.7021 19.6068 23.6599 19.7147C23.6178 19.8227 23.6469 19.9226 23.7056 20.0305C23.7644 20.1385 24.291 21.2823 25.2542 22.1645C26.342 23.1654 27.5 23.5632 27.6888 23.6219C27.8776 23.6807 28.0033 23.6662 28.0966 23.5632C28.19 23.4602 28.6021 22.975 28.744 22.7662C28.8859 22.5574 29.0287 22.5225 29.2865 22.6234C29.5443 22.7242 31.1088 23.4631 31.3488 23.575C31.5888 23.6868 31.7443 23.7367 31.8056 23.8526C31.8668 23.9684 31.8668 24.6671 31.591 25.14C31.3139 25.6128 30.9445 25.4163 30.6456 25.14Z" fill="#7C3AED"/>
  <path d="M65 12C60.0294 12 56 16.0294 56 21C56 25.9706 60.0294 30 65 30C69.9706 30 74 25.9706 74 21C74 16.0294 69.9706 12 65 12ZM65 15.6C67.873 15.6 70.1 17.827 70.1 20.7C70.1 23.573 67.873 25.8 65 25.8C62.127 25.8 59.9 23.573 59.9 20.7C59.9 17.827 62.127 15.6 65 15.6Z" fill="#9D78FF"/>
  <path d="M78 13H84C85.6569 13 87 14.3431 87 16V28H83.4V21.6H78V28H74.4V16C74.4 14.3431 75.7431 13 77.4 13H78Z" fill="#EFE7FF"/>
</svg>
